<svg width="1200" height="720" viewBox="0 0 1200 720" fill="none" xmlns="http://www.w3.org/2000/svg" role="img" aria-labelledby="title desc">
  <title id="title">OpenAgentSkill agent architecture</title>
  <desc id="desc">A diagram showing agents, skill domains, OpenAgentSkill resolve engine, trust layer, install plan, and outcome feedback.</desc>
  <defs>
    <pattern id="grid" width="22" height="22" patternUnits="userSpaceOnUse">
      <circle cx="1" cy="1" r="1" fill="#ded8ca"/>
    </pattern>
    <filter id="shadow" x="-20%" y="-20%" width="140%" height="140%">
      <feDropShadow dx="0" dy="18" stdDeviation="24" flood-color="#151412" flood-opacity="0.10"/>
    </filter>
    <marker id="arrow-green" markerWidth="10" markerHeight="10" refX="8" refY="5" orient="auto" markerUnits="strokeWidth">
      <path d="M0 0L10 5L0 10Z" fill="#006b4f"/>
    </marker>
    <marker id="arrow-gold" markerWidth="10" markerHeight="10" refX="8" refY="5" orient="auto" markerUnits="strokeWidth">
      <path d="M0 0L10 5L0 10Z" fill="#c58b25"/>
    </marker>
  </defs>
  <rect width="1200" height="720" fill="#faf8f1"/>
  <rect width="1200" height="720" fill="url(#grid)" opacity="0.9"/>
  <g font-family="Inter, Arial, sans-serif">
    <text x="600" y="54" text-anchor="middle" fill="#151412" font-size="12" font-weight="700" letter-spacing="3.5">AGENT SKILL INFRASTRUCTURE</text>
    <text x="600" y="84" text-anchor="middle" fill="#006b4f" font-size="14" font-weight="700" letter-spacing="2">RESOLVE · TRUST · INSTALL · OUTCOME</text>
  </g>

  <g font-family="Inter, Arial, sans-serif">
    <rect x="72" y="122" width="132" height="50" rx="10" fill="#fffdf7" stroke="#d7cfbe"/>
    <text x="92" y="145" fill="#151412" font-size="13" font-weight="700">Coding</text>
    <text x="92" y="162" fill="#746f66" font-size="10">PR · CI · repo</text>
    <circle cx="184" cy="145" r="4" fill="#c58b25"/>

    <rect x="228" y="122" width="132" height="50" rx="10" fill="#fffdf7" stroke="#d7cfbe"/>
    <text x="248" y="145" fill="#151412" font-size="13" font-weight="700">Research</text>
    <text x="248" y="162" fill="#746f66" font-size="10">web · sources</text>
    <circle cx="340" cy="145" r="4" fill="#c58b25"/>

    <rect x="384" y="122" width="132" height="50" rx="10" fill="#fffdf7" stroke="#d7cfbe"/>
    <text x="404" y="145" fill="#151412" font-size="13" font-weight="700">Finance</text>
    <text x="404" y="162" fill="#746f66" font-size="10">stocks · filings</text>
    <circle cx="496" cy="145" r="4" fill="#c58b25"/>

    <rect x="540" y="122" width="132" height="50" rx="10" fill="#fffdf7" stroke="#d7cfbe"/>
    <text x="560" y="145" fill="#151412" font-size="13" font-weight="700">RAG</text>
    <text x="560" y="162" fill="#746f66" font-size="10">docs · graph</text>
    <circle cx="652" cy="145" r="4" fill="#c58b25"/>

    <rect x="696" y="122" width="132" height="50" rx="10" fill="#fffdf7" stroke="#d7cfbe"/>
    <text x="716" y="145" fill="#151412" font-size="13" font-weight="700">PDF</text>
    <text x="716" y="162" fill="#746f66" font-size="10">OCR · parse</text>
    <circle cx="808" cy="145" r="4" fill="#c58b25"/>

    <rect x="852" y="122" width="132" height="50" rx="10" fill="#fffdf7" stroke="#d7cfbe"/>
    <text x="872" y="145" fill="#151412" font-size="13" font-weight="700">Browser</text>
    <text x="872" y="162" fill="#746f66" font-size="10">click · form</text>
    <circle cx="964" cy="145" r="4" fill="#c58b25"/>

    <rect x="1008" y="122" width="132" height="50" rx="10" fill="#fffdf7" stroke="#d7cfbe"/>
    <text x="1028" y="145" fill="#151412" font-size="13" font-weight="700">Growth</text>
    <text x="1028" y="162" fill="#746f66" font-size="10">SEO · X · CRM</text>
    <circle cx="1120" cy="145" r="4" fill="#c58b25"/>
  </g>

  <path d="M138 172V214H600V250" stroke="#8bb9a3" stroke-width="1.3" stroke-dasharray="4 6"/>
  <path d="M294 172V214H600V250" stroke="#8bb9a3" stroke-width="1.3" stroke-dasharray="4 6"/>
  <path d="M450 172V214H600V250" stroke="#8bb9a3" stroke-width="1.3" stroke-dasharray="4 6"/>
  <path d="M606 172V250" stroke="#8bb9a3" stroke-width="1.3" stroke-dasharray="4 6"/>
  <path d="M762 172V214H600V250" stroke="#8bb9a3" stroke-width="1.3" stroke-dasharray="4 6"/>
  <path d="M918 172V214H600V250" stroke="#8bb9a3" stroke-width="1.3" stroke-dasharray="4 6"/>
  <path d="M1074 172V214H600V250" stroke="#8bb9a3" stroke-width="1.3" stroke-dasharray="4 6"/>

  <g font-family="Inter, Arial, sans-serif">
    <text x="112" y="288" fill="#151412" font-size="12" font-weight="700" letter-spacing="2.4">AGENTS</text>
    <rect x="112" y="312" width="224" height="50" rx="10" fill="#fffdf7" stroke="#a9c7b9"/>
    <text x="132" y="334" fill="#151412" font-size="13" font-weight="700">Codex</text>
    <text x="132" y="351" fill="#746f66" font-size="10">local code · terminal · repo</text>
    <circle cx="316" cy="337" r="4" fill="#006b4f"/>

    <rect x="112" y="378" width="224" height="50" rx="10" fill="#fffdf7" stroke="#a9c7b9"/>
    <text x="132" y="400" fill="#151412" font-size="13" font-weight="700">Claude Code</text>
    <text x="132" y="417" fill="#746f66" font-size="10">project skills · review</text>
    <circle cx="316" cy="403" r="4" fill="#006b4f"/>

    <rect x="112" y="444" width="224" height="50" rx="10" fill="#fffdf7" stroke="#a9c7b9"/>
    <text x="132" y="466" fill="#151412" font-size="13" font-weight="700">Cursor / CLI Agents</text>
    <text x="132" y="483" fill="#746f66" font-size="10">IDE · scripts · workflows</text>
    <circle cx="316" cy="469" r="4" fill="#006b4f"/>
  </g>

  <g filter="url(#shadow)" font-family="Inter, Arial, sans-serif">
    <rect x="390" y="250" width="420" height="256" rx="20" fill="#006b4f"/>
    <rect x="402" y="262" width="396" height="232" rx="14" fill="#14784d" stroke="#cde0d0" stroke-width="2"/>
    <text x="600" y="296" text-anchor="middle" fill="#fffdf7" font-size="14" font-weight="800" letter-spacing="1.6">OPENAGENTSKILL RESOLVE ENGINE</text>
    <line x1="438" y1="316" x2="762" y2="316" stroke="#5fa67f"/>

    <circle cx="448" cy="352" r="14" fill="#e7f2e8" fill-opacity="0.18" stroke="#95c4aa"/>
    <text x="448" y="357" text-anchor="middle" fill="#fffdf7" font-size="10" font-weight="800">01</text>
    <text x="480" y="349" fill="#fffdf7" font-size="16" font-weight="800">Resolve</text>
    <text x="480" y="370" fill="#dbe9dc" font-size="12">match task to skill · alternatives · fit</text>

    <circle cx="448" cy="410" r="14" fill="#e7f2e8" fill-opacity="0.18" stroke="#95c4aa"/>
    <text x="448" y="415" text-anchor="middle" fill="#fffdf7" font-size="10" font-weight="800">02</text>
    <text x="480" y="407" fill="#fffdf7" font-size="16" font-weight="800">Trust</text>
    <text x="480" y="428" fill="#dbe9dc" font-size="12">score license · docs · risk · maintenance</text>

    <circle cx="448" cy="468" r="14" fill="#e7f2e8" fill-opacity="0.18" stroke="#95c4aa"/>
    <text x="448" y="473" text-anchor="middle" fill="#fffdf7" font-size="10" font-weight="800">03</text>
    <text x="480" y="465" fill="#fffdf7" font-size="16" font-weight="800">Install Plan</text>
    <text x="480" y="486" fill="#dbe9dc" font-size="12">agent handoff · sandbox policy · audit URL</text>

    <rect x="438" y="524" width="324" height="30" rx="15" fill="#0c5d3f"/>
    <text x="600" y="544" text-anchor="middle" fill="#fffdf7" font-size="11" font-weight="800" letter-spacing="2">API · AUDIT · BADGES · OUTCOME FEEDBACK</text>
  </g>

  <path d="M336 337H382" stroke="#006b4f" stroke-width="1.6" marker-end="url(#arrow-green)"/>
  <path d="M336 403H382" stroke="#006b4f" stroke-width="1.6" marker-end="url(#arrow-green)"/>
  <path d="M336 469H382" stroke="#006b4f" stroke-width="1.6" marker-end="url(#arrow-green)"/>

  <g font-family="Inter, Arial, sans-serif">
    <text x="864" y="288" fill="#151412" font-size="12" font-weight="700" letter-spacing="2.4">OUTPUTS</text>
    <rect x="864" y="312" width="224" height="50" rx="10" fill="#fffdf7" stroke="#e1bc7d"/>
    <text x="884" y="334" fill="#151412" font-size="13" font-weight="700">Best Skill</text>
    <text x="884" y="351" fill="#746f66" font-size="10">selected with alternatives</text>
    <circle cx="1068" cy="337" r="4" fill="#c58b25"/>

    <rect x="864" y="378" width="224" height="50" rx="10" fill="#fffdf7" stroke="#e1bc7d"/>
    <text x="884" y="400" fill="#151412" font-size="13" font-weight="700">Audit + Risk</text>
    <text x="884" y="417" fill="#746f66" font-size="10">Trust Score · safety review</text>
    <circle cx="1068" cy="403" r="4" fill="#c58b25"/>

    <rect x="864" y="444" width="224" height="50" rx="10" fill="#fffdf7" stroke="#e1bc7d"/>
    <text x="884" y="466" fill="#151412" font-size="13" font-weight="700">Install Handoff</text>
    <text x="884" y="483" fill="#746f66" font-size="10">Codex · Claude Code · Cursor</text>
    <circle cx="1068" cy="469" r="4" fill="#c58b25"/>
  </g>

  <path d="M810 337H856" stroke="#c58b25" stroke-width="1.6" marker-end="url(#arrow-gold)"/>
  <path d="M810 403H856" stroke="#c58b25" stroke-width="1.6" marker-end="url(#arrow-gold)"/>
  <path d="M810 469H856" stroke="#c58b25" stroke-width="1.6" marker-end="url(#arrow-gold)"/>

  <path d="M600 506V584" stroke="#8bb9a3" stroke-width="1.3" stroke-dasharray="4 6"/>
  <g font-family="Inter, Arial, sans-serif">
    <text x="600" y="602" text-anchor="middle" fill="#151412" font-size="12" font-weight="700" letter-spacing="2.4">OUTCOME LOOP</text>
    <rect x="218" y="626" width="156" height="46" rx="9" fill="#fffdf7" stroke="#d7cfbe"/>
    <text x="238" y="650" fill="#151412" font-size="12" font-weight="700">success</text>
    <text x="238" y="664" fill="#746f66" font-size="9">works in task</text>
    <rect x="398" y="626" width="156" height="46" rx="9" fill="#fffdf7" stroke="#d7cfbe"/>
    <text x="418" y="650" fill="#151412" font-size="12" font-weight="700">setup_required</text>
    <text x="418" y="664" fill="#746f66" font-size="9">needs context</text>
    <rect x="578" y="626" width="156" height="46" rx="9" fill="#fffdf7" stroke="#d7cfbe"/>
    <text x="598" y="650" fill="#151412" font-size="12" font-weight="700">blocked_by_risk</text>
    <text x="598" y="664" fill="#746f66" font-size="9">policy gate</text>
    <rect x="758" y="626" width="156" height="46" rx="9" fill="#fffdf7" stroke="#d7cfbe"/>
    <text x="778" y="650" fill="#151412" font-size="12" font-weight="700">failed</text>
    <text x="778" y="664" fill="#746f66" font-size="9">rank lower</text>
  </g>
</svg>
