<svg width="1200" height="630" viewBox="0 0 1200 630" fill="none" xmlns="http://www.w3.org/2000/svg">
  <rect width="1200" height="630" fill="#faf8f1"/>
  <defs>
    <pattern id="dot-grid" width="18" height="18" patternUnits="userSpaceOnUse">
      <circle cx="1" cy="1" r="1" fill="#ded8ca"/>
    </pattern>
    <filter id="soft-shadow" x="-20%" y="-20%" width="140%" height="140%">
      <feDropShadow dx="0" dy="18" stdDeviation="28" flood-color="#1d1a16" flood-opacity="0.08"/>
    </filter>
  </defs>
  <rect width="1200" height="630" fill="url(#dot-grid)" opacity="0.9"/>
  <rect x="70" y="70" width="1060" height="490" rx="28" fill="#fffdf7" stroke="#d9d0bf" filter="url(#soft-shadow)"/>
  <g transform="translate(104 102)">
    <path d="M25 0C14.6 7.4 8 31.2 8 58C8 84.8 14.6 108.6 25 116C10.8 112 0 88.2 0 58C0 27.8 10.8 4 25 0Z" fill="#151412"/>
    <path d="M61 0C75.2 4 86 27.8 86 58C86 88.2 75.2 112 61 116C71.4 108.6 78 84.8 78 58C78 31.2 71.4 7.4 61 0Z" fill="#151412"/>
    <text x="118" y="40" fill="#151412" font-family="Inter, Arial, sans-serif" font-size="26" font-weight="700">OpenAgentSkill</text>
    <rect x="118" y="55" width="86" height="26" rx="13" fill="#edf5ef" stroke="#cddfcf"/>
    <text x="132" y="73" fill="#006b4f" font-family="Inter, Arial, sans-serif" font-size="12" font-weight="700" letter-spacing="1.8">REGISTRY</text>
  </g>
  <g transform="translate(104 205)">
    <text fill="#151412" font-family="Georgia, 'Times New Roman', serif" font-size="76" font-weight="700" letter-spacing="-1.2">The skill layer</text>
    <text x="0" y="86" fill="#006b4f" font-family="Georgia, 'Times New Roman', serif" font-size="76" font-weight="700" font-style="italic" letter-spacing="-1.2">for AI agents.</text>
    <text x="0" y="148" fill="#5f5a51" font-family="Inter, Arial, sans-serif" font-size="26" font-weight="400">Find, compare, audit, and install reusable skills automatically.</text>
    <text x="0" y="196" fill="#151412" font-family="Inter, Arial, sans-serif" font-size="24" font-weight="700">OpenAgentSkill is npm for AI Agent Skills.</text>
  </g>
  <g transform="translate(104 472)" font-family="Inter, Arial, sans-serif">
    <rect width="238" height="56" rx="14" fill="#006b4f"/>
    <text x="24" y="36" fill="#fffdf7" font-size="18" font-weight="700">Resolve API</text>
    <path d="M188 28h22m0 0-8-8m8 8-8 8" stroke="#fffdf7" stroke-width="2" stroke-linecap="round" stroke-linejoin="round"/>
    <rect x="260" width="238" height="56" rx="14" fill="#fffdf7" stroke="#d9d0bf"/>
    <text x="284" y="36" fill="#151412" font-size="18" font-weight="700">Trust Score</text>
    <rect x="520" width="238" height="56" rx="14" fill="#fffdf7" stroke="#d9d0bf"/>
    <text x="544" y="36" fill="#151412" font-size="18" font-weight="700">Install Plan</text>
    <rect x="780" width="238" height="56" rx="14" fill="#fffdf7" stroke="#d9d0bf"/>
    <text x="804" y="36" fill="#151412" font-size="18" font-weight="700">Outcome Loop</text>
  </g>
  <g transform="translate(776 130)">
    <rect width="312" height="272" rx="22" fill="#11100e"/>
    <rect x="28" y="28" width="100" height="28" rx="14" fill="#1c1b18" stroke="#3a362f"/>
    <circle cx="44" cy="42" r="6" fill="#006b4f"/>
    <text x="60" y="47" fill="#fffdf7" font-family="Inter, Arial, sans-serif" font-size="12" font-weight="700">Agent ready</text>
    <text x="28" y="104" fill="#fffdf7" font-family="Inter, Arial, sans-serif" font-size="22" font-weight="700">analyze stock news</text>
    <rect x="28" y="134" width="256" height="1" fill="#3a362f"/>
    <text x="28" y="176" fill="#b7b0a5" font-family="Inter, Arial, sans-serif" font-size="15">Best skill</text>
    <text x="28" y="204" fill="#fffdf7" font-family="Inter, Arial, sans-serif" font-size="20" font-weight="700">Serenity Skill</text>
    <rect x="28" y="226" width="92" height="28" rx="14" fill="#006b4f"/>
    <text x="47" y="245" fill="#fffdf7" font-family="Inter, Arial, sans-serif" font-size="12" font-weight="700">83 Trust</text>
    <rect x="130" y="226" width="102" height="28" rx="14" fill="#1c1b18" stroke="#3a362f"/>
    <text x="151" y="245" fill="#fffdf7" font-family="Inter, Arial, sans-serif" font-size="12" font-weight="700">Risk: review</text>
  </g>
</svg>
